<?xml version="1.0" encoding="UTF-8"?>
<svg width="48px" height="48px" viewBox="0 0 48 48" version="1.1" xmlns="http://www.w3.org/2000/svg" xmlns:xlink="http://www.w3.org/1999/xlink">
    <!-- Generator: Sketch 51.2 (57519) - http://www.bohemiancoding.com/sketch -->
    <title>Price2</title>
    <desc>Created with Sketch.</desc>
    <defs></defs>
    <g id="Price2" stroke="none" stroke-width="1" fill="none" fill-rule="evenodd">
        <g>
            <path d="M4,40 L44,40 L44,42 L4,42 L4,40 Z M5,18 L13,18 L13,38 L5,38 L5,18 Z M7,20 L7,36 L11,36 L11,20 L7,20 Z M15,4 L23,4 L23,38 L15,38 L15,4 Z M17,6 L17,36 L21,36 L21,6 L17,6 Z M25,19 L33,19 L33,38 L25,38 L25,19 Z M27,21 L27,36 L31,36 L31,21 L27,21 Z M35,8 L43,8 L43,38 L35,38 L35,8 Z M37,10 L37,36 L41,36 L41,10 L37,10 Z" fill="#797F85" fill-rule="nonzero"></path>
            <rect x="0" y="0" width="48" height="48"></rect>
        </g>
    </g>
</svg>