<?xml version="1.0" encoding="UTF-8"?>
<svg width="48px" height="48px" viewBox="0 0 48 48" version="1.1" xmlns="http://www.w3.org/2000/svg" xmlns:xlink="http://www.w3.org/1999/xlink">
    <!-- Generator: Sketch 51.2 (57519) - http://www.bohemiancoding.com/sketch -->
    <title>deal2</title>
    <desc>Created with Sketch.</desc>
    <defs></defs>
    <g id="deal2" stroke="none" stroke-width="1" fill="none" fill-rule="evenodd">
        <path d="M29.4797262,23.2243544 L42.2951018,30.623315 C42.9691719,31.0124895 43.2001254,31.8744197 42.8109508,32.5484898 C42.4217762,33.22256 41.5598461,33.4535135 40.8857759,33.0643389 L28.0704004,25.6653783 L25.2517487,30.5474262 C25.0571614,30.8844612 24.6261963,30.999938 24.2891613,30.8053507 L13.3045536,24.4633845 C12.9675186,24.2687972 12.8520418,23.8378321 13.0466291,23.5007971 L20.0932582,11.2956775 C20.2878455,10.9586424 20.7188106,10.8431656 21.0558456,11.0377529 L32.0404533,17.3797191 C32.3774884,17.5743064 32.4929651,18.0052715 32.2983778,18.3423066 L29.4797262,23.2243544 Z M7,39 L25,39 C25.5522847,39 26,39.4477153 26,40 C26,40.5522847 25.5522847,41 25,41 L7,41 C6.44771525,41 6,40.5522847 6,40 C6,39.4477153 6.44771525,39 7,39 Z M8,36 L23,36 C23.5522847,36 24,36.4477153 24,37 C24,37.5522847 23.5522847,38 23,38 L8,38 C7.44771525,38 7,37.5522847 7,37 C7,36.4477153 7.44771525,36 8,36 Z M15.5820599,23.3372795 L24.1256437,28.2699198 L29.762947,18.5058241 L21.2193632,13.5731838 L15.5820599,23.3372795 Z M23.0732723,8.13414157 L33.5463411,14.1807707 C34.0246338,14.456913 34.1885089,15.0685034 33.9123665,15.5467961 L33.8553722,15.6455132 C33.5792298,16.1238058 32.9676394,16.287681 32.4893468,16.0115386 L22.016278,9.96490951 C21.5379853,9.68876714 21.3741102,9.07717673 21.6502526,8.59888411 L21.7072469,8.50016698 C21.9833893,8.02187435 22.5949797,7.8579992 23.0732723,8.13414157 Z M12.8556601,25.831565 L23.3287289,31.8781941 C23.8070216,32.1543365 23.9708967,32.7659269 23.6947543,33.2442195 L23.63776,33.3429367 C23.3616176,33.8212293 22.7500272,33.9851044 22.2717346,33.7089621 L11.7986658,27.662333 C11.3203731,27.3861906 11.156498,26.7746002 11.4326404,26.2963076 L11.4896347,26.1975904 C11.7657771,25.7192978 12.3773675,25.5554226 12.8556601,25.831565 Z" fill="#797F85"></path>
        <rect x="0" y="0" width="48" height="48"></rect>
    </g>
</svg>