<?xml version="1.0" encoding="UTF-8"?>
<svg width="48px" height="48px" viewBox="0 0 48 48" version="1.1" xmlns="http://www.w3.org/2000/svg" xmlns:xlink="http://www.w3.org/1999/xlink">
    <!-- Generator: Sketch 51.2 (57519) - http://www.bohemiancoding.com/sketch -->
    <title>User</title>
    <desc>Created with Sketch.</desc>
    <defs>
        <linearGradient x1="100%" y1="100%" x2="0%" y2="0%" id="linearGradient-1">
            <stop stop-color="#12A0D2" offset="0%"></stop>
            <stop stop-color="#4DCC7B" offset="100%"></stop>
        </linearGradient>
    </defs>
    <g id="User" stroke="none" stroke-width="1" fill="none" fill-rule="evenodd">
        <g>
            <path d="M16.3891894,23.203997 C16.3927786,23.2101269 16.3963132,23.2163718 16.3997706,23.2227104 C16.4050833,23.2253153 16.4090268,23.2272489 16.4069822,23.2229774 Z M15.4687794,22.7192049 C15.232009,22.6684975 15.1837443,22.7020457 15.0527864,22.7930728 C15.0442838,22.7973241 15.0466867,22.797173 15.0353401,22.7986055 C15.3560489,22.7443564 15.5176204,22.8540221 15.6336527,22.9959572 C15.5703787,22.9021115 15.5223686,22.8204767 15.4687794,22.7192049 Z M14.3385152,18.8215275 C14.3244616,18.55124 14.3427438,18.3505803 14.3944272,18.2472136 C14.2506092,18.5348496 13.9630852,18.6589554 13.7516576,18.6440813 C13.7969031,18.6563505 13.8699386,18.6781248 14.0126401,18.7241576 C14.0754125,18.7443686 14.0754125,18.7443686 14.1446897,18.7659831 C14.2125681,18.7868688 14.2767458,18.8054053 14.3385152,18.8215275 Z M13.7516576,18.6440813 C13.7508551,18.6440249 13.7500537,18.6439664 13.7492534,18.643906 C13.7508011,18.6440229 13.7562027,18.6452743 13.7665135,18.6480803 Z M16.7197247,10.7943809 C16.7225438,10.7913781 16.7253689,10.7883727 16.7282,10.7853647 C16.7187101,10.7951465 16.7134897,10.8005275 16.7197247,10.7943809 Z M22.8986138,7.02207878 C22.9080846,7.0134368 22.9184327,7.00398003 22.9297953,6.9935962 C23.1469963,6.77977825 23.1469963,6.77977825 23.1565524,5.98846713 C22.7077299,5.37920608 22.7077299,5.37920608 22.4344847,5.32711956 C22.427544,5.32594954 22.4209043,5.32483026 22.4145465,5.32375951 C22.3896701,5.29444026 22.3717484,5.26388789 22.3701425,5.25746437 L21.4,5.5 L21.0582569,6.43979342 C21.7669545,6.69750163 22.3793591,6.88732711 22.8986138,7.02207878 Z M26.717079,7.3 L27.4507811,7.3 L25.224695,5.51913119 C25.073034,5.39780237 24.9541579,5.22883803 24.8654523,5.01359648 C24.7320981,4.6900165 24.688656,4.32812553 24.6979815,4.06545746 C24.698357,4.05688502 24.698357,4.05688502 24.6977852,4.06651901 L22.8425071,4.51449576 C23.4300278,5.49369704 24.1609844,6.09310626 25.3602948,6.6846079 C25.575739,6.79086532 26.1465333,7.04638116 26.717079,7.3 Z M33.65849,18.7727243 C33.7004555,18.7647715 33.7429408,18.7557759 33.786084,18.7458198 C33.8768319,18.7248779 33.9583467,18.7027901 34.0760173,18.6687275 C34.2628893,18.614633 34.311043,18.6022506 34.3219527,18.6011596 C34.1258299,18.6207719 33.8575674,18.5391268 33.6679497,18.2547002 L34.5,17.7 L33.6055728,18.1472136 C33.6604684,18.2570048 33.6776819,18.4765586 33.65849,18.7727243 Z M32.5312206,22.6192049 C32.458464,22.756699 32.395991,22.8579966 32.3550038,22.9101088 C32.4708491,22.7628198 32.6291079,22.6446417 33.020128,22.7058286 C32.9530998,22.6971534 32.956062,22.697497 32.9472136,22.6930728 C32.8162557,22.6020457 32.767991,22.5684975 32.5312206,22.6192049 Z M31.5940196,23.1211634 C31.590047,23.127703 31.5942796,23.1256277 31.6002294,23.1227104 C31.6072258,23.1098837 31.6145384,23.0974402 31.6219793,23.0855587 Z M21.7774752,5.40194709 C21.7789059,5.40137196 21.7802479,5.40082785 21.781511,5.40031102 C21.7820329,5.39969065 21.7824378,5.39920936 21.7814393,5.39955699 Z M33.3702952,24.0667561 C33.3701205,24.0662972 33.3640733,24.0723519 33.3560206,24.0804146 C33.3547812,24.0826868 33.3535345,24.0849564 33.3522803,24.0872235 Z" stroke="url(#linearGradient-1)" stroke-width="2"></path>
            <rect x="0" y="0" width="48" height="48"></rect>
        </g>
    </g>
</svg>